<?xml version="1.0" encoding="UTF-8"?><svg id="Capa_2" xmlns="http://www.w3.org/2000/svg" viewBox="0 0 300.57 211.35"><defs><style>.cls-1{fill:#008a99;}</style></defs><g id="Capa_1-2"><path class="cls-1" d="M0,22.91c.44-1.59,.82-3.2,1.33-4.76C4.88,7.38,14.9,.09,26.5,.04c18.39-.08,36.77-.02,55.16-.02,63.67,0,127.34,0,191.01,0,13.38,0,23.65,7.5,26.95,19.63,.7,2.57,.94,5.17,.94,7.83-.01,52.13,0,104.26-.02,156.39,0,16.14-11.39,27.47-27.57,27.47-81.57,.02-163.14,0-244.71,0-14.7,0-24.27-7.52-27.84-21.82-.09-.37-.29-.71-.44-1.07,0-55.18,0-110.36,0-165.54Zm31.14-5.12c.23,1.11,1.06,1.55,1.65,2.14,36.52,36.65,73.06,73.3,109.59,109.94,5.02,5.03,10.83,4.99,15.93-.12,36.54-36.64,73.07-73.28,109.59-109.94,.57-.57,1.51-.95,1.44-2.02H31.14Zm-.38,175.01l.47,.67h238.37c-.3-.43-.39-.61-.52-.74-24.24-24.32-48.49-48.64-72.7-72.99-1.28-1.29-1.97-1.29-3.24,0-7.4,7.54-14.89,14.99-22.35,22.48-11.96,12.01-29.08,12.01-41.01,0-7.31-7.36-14.69-14.65-21.92-22.08-1.6-1.65-2.47-1.66-4.1,0-10.01,10.19-20.1,20.3-30.23,30.37-14.23,14.13-28.51,28.2-42.78,42.3Zm-13.01-11.45c.64-.51,.88-.67,1.09-.88,24.31-24.38,48.6-48.78,72.97-73.1,1.7-1.7,.9-2.43-.33-3.66-23.85-23.88-47.66-47.78-71.51-71.66-.62-.62-1.04-1.67-2.23-1.6V181.35ZM282.79,29.99c-1.01,.94-1.72,1.56-2.38,2.23-23.68,23.75-47.34,47.53-71.09,71.21-1.87,1.87-1.75,2.74,.04,4.53,23.81,23.76,47.54,47.61,71.3,71.42,.58,.59,1.01,1.42,2.13,1.61V29.99Z"/></g></svg>