<?xml version="1.0" encoding="UTF-8"?><svg id="Capa_2" xmlns="http://www.w3.org/2000/svg" viewBox="0 0 268.25 268.29"><defs><style>.cls-1{fill:#008a99;}</style></defs><g id="Capa_1-2"><g><path class="cls-1" d="M125.89,0h16.79c.67,.15,1.34,.39,2.01,.44,6.99,.49,13.87,1.64,20.69,3.21,69.64,16,114.79,86.41,100.1,156.43-17.32,82.53-108.22,130.96-189.04,93-1.86-.87-3.49-1.07-5.47-.61-22.54,5.2-45.09,10.33-67.64,15.46-2.91,.66-2.94,.63-2.33-2.16,4.95-22.6,9.89-45.19,14.9-67.77,.33-1.49,.14-2.65-.55-3.96-6.47-12.39-11.08-25.43-13.39-39.23C1.2,150.26,.65,145.67,0,141.1v-16.26c.97-5.84,1.41-11.75,2.53-17.58C12.73,54.31,57.47,10.71,110.62,2.08,115.69,1.26,120.8,.69,125.89,0ZM27.98,240.72c.8-.14,1.13-.19,1.47-.27,15.06-3.41,30.14-6.78,45.18-10.29,1.72-.4,2.99-.06,4.42,.71,33.85,17.98,68.4,19.35,103.31,3.57,46.45-20.99,72.81-72.58,62.96-122.39C233.22,50.81,172.18,10.25,111.3,23.3c-33.5,7.18-59.07,25.78-76.07,55.57-12.01,21.05-16.38,43.81-13.31,67.92,2,15.65,7.4,30.11,15.39,43.64,.79,1.34,1.21,2.58,.84,4.18-1.69,7.31-3.29,14.64-4.9,21.97-1.74,7.91-3.46,15.83-5.27,24.14Z"/><path class="cls-1" d="M93.87,74.45c7.69,0,8.74,.66,11.46,7.16,2.93,7,5.74,14.06,8.7,21.05,.89,2.11,.74,3.97-.2,6.02-1.65,3.6-4.45,6.23-7.12,8.99-3.01,3.11-3.09,4.08-.88,7.77,9.85,16.42,23.53,28.4,41.31,35.63,3.44,1.4,4.65,1.2,7.06-1.7,3.02-3.63,5.98-7.29,8.91-10.99,2.2-2.78,3.28-3.33,6.5-2.05,8.93,3.55,17.36,8.17,25.95,12.45,1.55,.77,2.02,2.16,1.97,3.71-.22,8.05-2.09,15.22-9.12,20.43-9.67,7.17-20.05,7.9-31.35,5.17-28.52-6.89-50.49-23.09-67.43-46.64-5.31-7.37-10.77-14.67-13.91-23.32-4.99-13.76-3.85-26.55,6.06-37.99,3.43-3.97,7.33-6.45,12.08-5.67Z"/></g></g></svg>